<?xml version="1.0" encoding="UTF-8" standalone="no"?>
<svg
   id="emoji"
   viewBox="0 0 72 72"
   version="1.1"
   sodipodi:docname="frog.svg"
   inkscape:version="1.1.2 (0a00cf5339, 2022-02-04)"
   xmlns:inkscape="http://www.inkscape.org/namespaces/inkscape"
   xmlns:sodipodi="http://sodipodi.sourceforge.net/DTD/sodipodi-0.dtd"
   xmlns="http://www.w3.org/2000/svg"
   xmlns:svg="http://www.w3.org/2000/svg">
  <defs
     id="defs902" />
  <sodipodi:namedview
     id="namedview900"
     pagecolor="#ffffff"
     bordercolor="#666666"
     borderopacity="1.0"
     inkscape:pageshadow="2"
     inkscape:pageopacity="0.0"
     inkscape:pagecheckerboard="0"
     showgrid="false"
     inkscape:zoom="7.9254885"
     inkscape:cx="24.667249"
     inkscape:cy="33.499512"
     inkscape:window-width="1846"
     inkscape:window-height="1016"
     inkscape:window-x="0"
     inkscape:window-y="0"
     inkscape:window-maximized="1"
     inkscape:current-layer="emoji"
     showguides="true"
     inkscape:guide-bbox="true">
    <sodipodi:guide
       position="36,39.072707"
       orientation="1,0"
       id="guide2153" />
  </sodipodi:namedview>
  <path
     sodipodi:type="star"
     style="fill:#ff2a2a;stroke:none;stroke-width:1.37953"
     id="path4562"
     inkscape:flatsided="false"
     sodipodi:sides="3"
     sodipodi:cx="36"
     sodipodi:cy="14.773831"
     sodipodi:r1="18.153461"
     sodipodi:r2="9.0767307"
     sodipodi:arg1="1.5707963"
     sodipodi:arg2="2.6179939"
     inkscape:rounded="0"
     inkscape:randomized="0"
     d="M 36,32.927293 28.139321,19.312197 20.278641,5.6971011 36,5.6971006 l 15.721359,-4e-7 -7.86068,13.6150968 z"
     inkscape:transform-center-y="4.5383654"
     transform="matrix(0.64367067,0,0,1,12.827856,37.884593)" />
  <g
     id="g4560">
    <g
       id="g2151">
      <g
         id="g3568"
         transform="matrix(-1,0,0,1,71.864879,-4)" />
      <g
         id="color"
         transform="translate(0.13512066,-4)">
        <path
           fill="#b1cc33"
           stroke="none"
           stroke-linecap="round"
           stroke-linejoin="round"
           stroke-miterlimit="10"
           stroke-width="2"
           d="m 16.4762,31.384 c 0.333,-0.4283 0.391,-1.0013 0.0259,-1.4026 -1.4705,-1.6157 -4.5595,-5.6648 -2.9399,-9.7139 2.0891,-5.2228 6.2674,-6.2674 9.4011,-6.2674 3.0031,0 7.9249,1.9186 9.2492,7.5947 0.1057,0.4531 0.5276,0.7619 0.9928,0.7619 l 2.659579,-5e-5 2.659579,5e-5 c 0.4652,0 0.8871,-0.3088 0.9928,-0.7619 1.3243,-5.6761 6.2461,-7.5947 9.2492,-7.5947 3.1337,0 7.312,1.0446 9.4011,6.2674 1.6196,4.0491 -1.4694,8.0982 -2.9399,9.7139 -0.3651,0.4013 -0.3071,0.9743 0.0259,1.4026 7.4762,9.616 5.5254,29.6217 -19.388679,29.6215 C 10.9508,61.0057 9,41 16.4762,31.384 Z"
           id="path880"
           sodipodi:nodetypes="sccscccccsccscs" />
      </g>
      <g
         id="line"
         transform="translate(0.13970614,-4)">
        <circle
           cx="22.280943"
           cy="23.401199"
           r="3.1336999"
           fill="#000000"
           stroke="none"
           id="circle890" />
        <circle
           cx="49.439644"
           cy="23.401199"
           r="3.1336999"
           fill="#000000"
           stroke="none"
           id="circle892" />
        <path
           fill="none"
           stroke="#000000"
           stroke-linecap="round"
           stroke-linejoin="round"
           stroke-miterlimit="10"
           stroke-width="2"
           d="m 21.758644,48.4708 c 0,0 13.5794,12.5348 28.2033,0"
           id="path888" />
        <circle
           cx="31.682045"
           cy="43.248001"
           r="2.0890999"
           fill="#000000"
           stroke="none"
           id="circle894" />
        <circle
           cx="40.038544"
           cy="43.248001"
           r="2.0890999"
           fill="#000000"
           stroke="none"
           id="circle896" />
      </g>
    </g>
    <path
       fill="#b1cc33"
       stroke="none"
       stroke-linecap="round"
       stroke-linejoin="round"
       stroke-miterlimit="10"
       stroke-width="2"
       d="m 16.611321,27.384 c 0.333,-0.4283 0.391,-1.0013 0.0259,-1.4026 -1.4705,-1.6157 -4.5595,-5.6648 -2.9399,-9.7139 2.0891,-5.2228 6.2674,-6.2674 9.4011,-6.2674 3.0031,0 7.9249,1.9186 9.2492,7.5947 0.1057,0.4531 0.5276,0.7619 0.9928,0.7619 L 36,18.35665 l 2.659579,5e-5 c 0.4652,0 0.8871,-0.3088 0.9928,-0.7619 1.3243,-5.6761 6.2461,-7.5947 9.2492,-7.5947 3.1337,0 7.312,1.0446 9.4011,6.2674 1.6196,4.0491 -1.4694,8.0982 -2.9399,9.7139 -0.3651,0.4013 -0.3071,0.9743 0.0259,1.4026 C 62.864879,37 60.914079,57.0057 36,57.0055 11.085921,57.0057 9.1351207,37 16.611321,27.384 Z"
       id="path4084"
       sodipodi:nodetypes="sccscccccsccscs"
       style="stroke:#000000;fill:none" />
  </g>
  <g
     id="hair" />
  <g
     id="skin" />
  <g
     id="skin-shadow" />
  <path
     sodipodi:type="star"
     style="fill:#ff2a2a;stroke:none;stroke-width:1.37953"
     id="path2006"
     inkscape:flatsided="false"
     sodipodi:sides="3"
     sodipodi:cx="36"
     sodipodi:cy="14.773831"
     sodipodi:r1="18.153461"
     sodipodi:r2="9.0767307"
     sodipodi:arg1="1.5707963"
     sodipodi:arg2="2.6179939"
     inkscape:rounded="0"
     inkscape:randomized="0"
     d="M 36,32.927293 28.139321,19.312197 20.278641,5.6971011 36,5.6971006 l 15.721359,-4e-7 -7.86068,13.6150968 z"
     inkscape:transform-center-y="4.5383654"
     transform="matrix(0.64367067,0,0,1,12.827856,0)" />
</svg>
